<svg width="74" height="17" viewBox="0 0 74 17" fill="none" xmlns="http://www.w3.org/2000/svg">
    <path d="M9.89764 5.25254C9.45354 5.25107 9.01396 5.34165 8.60676 5.51854C8.19956 5.69544 7.83361 5.95478 7.53208 6.28016C7.23055 6.60554 7.00001 6.98986 6.85507 7.40878C6.71013 7.8277 6.65395 8.27209 6.69007 8.7138C6.64994 9.07795 6.68915 9.44646 6.805 9.79408C6.92086 10.1417 7.11063 10.4602 7.36132 10.7279C7.61202 10.9955 7.91771 11.2059 8.25746 11.3446C8.59722 11.4834 8.96301 11.5473 9.3298 11.5318C9.77904 11.5419 10.2254 11.4577 10.6399 11.2846C11.0545 11.1115 11.4279 10.8534 11.7361 10.5271C12.0443 10.2008 12.2804 9.81349 12.429 9.3903C12.5776 8.96711 12.6354 8.51749 12.5988 8.07056C12.6373 7.70155 12.5948 7.32861 12.4745 6.97759C12.3541 6.62658 12.1586 6.30589 11.9017 6.03779C11.6447 5.76969 11.3323 5.56059 10.9863 5.425C10.6402 5.2894 10.2688 5.23055 9.89764 5.25254Z" fill="white"/>
    <path d="M22.0852 5.25376C21.6271 5.25986 21.1754 5.36108 20.7586 5.55097C20.3419 5.74086 19.9694 6.01527 19.6648 6.35671C19.3602 6.69816 19.1301 7.09916 18.9893 7.53419C18.8485 7.96922 18.8 8.42874 18.8469 8.88349C18.8049 9.25021 18.8425 9.62166 18.9571 9.97261C19.0716 10.3236 19.2605 10.6458 19.5109 10.9175C19.7613 11.1892 20.0674 11.4039 20.4083 11.5471C20.7492 11.6903 21.117 11.7586 21.4867 11.7475C21.9416 11.7493 22.392 11.6563 22.8088 11.4745C23.2257 11.2926 23.6 11.026 23.9077 10.6915C24.2154 10.3571 24.4497 9.96221 24.5957 9.53221C24.7418 9.1022 24.7962 8.64651 24.7556 8.1943C24.8021 7.82047 24.7672 7.44103 24.6534 7.08188C24.5395 6.72273 24.3493 6.39232 24.0958 6.11319C23.8424 5.83407 23.5315 5.61279 23.1845 5.46448C22.8375 5.31616 22.4626 5.24428 22.0852 5.25376Z" fill="white"/>
    <path d="M65.8856 13.5847H63.5375L61.3889 3.41532H64.0286L65.2564 9.72522L70.8581 0H41.6984L41.2687 2.23604H38.8131L39.1968 0H3.23826L0 17H5.69382C5.0596 16.6652 4.51948 16.1773 4.12273 15.5807C3.72598 14.9841 3.48522 14.2979 3.42243 13.5847H6.23097C6.36133 14.0778 6.65891 14.5106 7.07304 14.8093C7.48718 15.1081 7.99228 15.2545 8.50236 15.2234C9.37595 15.2622 10.2351 14.9909 10.9272 14.4577C11.3666 14.0417 11.6803 13.5111 11.8327 12.9261C11.0609 13.5163 10.1022 13.8098 9.1316 13.7532C7.9252 13.7699 6.75336 13.3511 5.83194 12.5739C5.31203 12.112 4.90381 11.5386 4.63799 10.8966C4.37216 10.2547 4.25566 9.56093 4.29722 8.86757C4.26912 8.0737 4.40905 7.28285 4.70787 6.54659C5.00669 5.81032 5.45769 5.1452 6.03146 4.59459C7.09582 3.59042 8.51114 3.04086 9.97569 3.06306C10.6332 2.99271 11.2976 3.09736 11.9015 3.36636C12.5053 3.63537 13.027 4.05914 13.4135 4.59459L13.659 3.35405H15.8997L14.0887 12.773C13.8997 14.0411 13.3017 15.2132 12.3852 16.1117C11.9307 16.4967 11.411 16.7975 10.8505 17H70.2442L73.6667 0L65.8856 13.5847ZM23.8496 13.5847L23.957 12.9874C23.1881 13.6369 22.2007 13.9708 21.1945 13.9216C20.0313 13.9339 18.903 13.5259 18.0176 12.773C17.4931 12.295 17.0829 11.7055 16.8172 11.0481C16.5516 10.3907 16.4374 9.68215 16.4829 8.97477C16.4563 8.16777 16.5935 7.36373 16.8862 6.61099C17.179 5.85825 17.6213 5.17238 18.1865 4.59459C19.2393 3.60153 20.636 3.05282 22.0847 3.06306C22.7492 2.98748 23.422 3.08946 24.0342 3.35856C24.6463 3.62766 25.1758 4.05422 25.5685 4.59459L25.814 3.35405H28.0854L26.0903 13.5847H23.8496ZM35.6362 11.4252L35.2986 13.5847H27.4408L27.8706 11.4252L33.4569 5.57477H29.3439L29.7736 3.41532H36.8333L36.4036 5.57477L30.894 11.4252H35.6362ZM36.5417 13.5847L38.5369 3.41532H40.9771L38.9973 13.5847H36.5417ZM49.3567 5.57477L43.7856 11.4252H48.5279L48.1135 13.5847H40.3325L40.7622 11.4252L46.3333 5.57477H42.2356L42.6653 3.41532H49.7864L49.3567 5.57477ZM59.0101 12.3595C58.4706 12.8752 57.8323 13.2767 57.1334 13.5399C56.4344 13.8031 55.6894 13.9225 54.9431 13.891C54.2742 13.9302 53.6043 13.8337 52.9739 13.6073C52.3434 13.381 51.7655 13.0294 51.2751 12.5739C50.8145 12.1043 50.4555 11.5451 50.2205 10.9313C49.9856 10.3174 49.8796 9.66187 49.9092 9.00541C49.8903 8.19211 50.0339 7.38321 50.3317 6.62591C50.6294 5.86861 51.0753 5.17807 51.6434 4.59459C52.1908 4.07682 52.8371 3.67437 53.5438 3.41124C54.2504 3.14811 55.003 3.0297 55.7565 3.06306C56.4223 3.02 57.0898 3.11629 57.7162 3.34575C58.3426 3.5752 58.914 3.93276 59.3937 4.39549C59.8466 4.86048 60.1998 5.41258 60.432 6.01816C60.6642 6.62374 60.7705 7.27015 60.7443 7.91802C60.772 9.56812 60.1492 11.1631 59.0101 12.3595Z" fill="white"/>
    <path d="M55.6187 5.25266C55.1775 5.24279 54.7393 5.32798 54.3341 5.50241C53.9289 5.67685 53.5661 5.93644 53.2705 6.26347C52.653 6.99379 52.3302 7.92745 52.365 8.88239C52.3347 9.59911 52.5574 10.3037 52.9943 10.8734C53.2402 11.1706 53.5538 11.4049 53.9088 11.5568C54.2639 11.7086 54.6502 11.7736 55.0355 11.7464C55.4778 11.7543 55.9167 11.6667 56.322 11.4896C56.7273 11.3125 57.0894 11.05 57.3836 10.7202C58.0179 10.0038 58.3529 9.07204 58.3198 8.11662C58.3414 7.39615 58.1077 6.69114 57.6598 6.12563C57.4115 5.83127 57.0975 5.599 56.7431 5.44742C56.3886 5.29583 56.0036 5.22913 55.6187 5.25266Z" fill="white"/>
</svg>
